<?xml version="1.0" standalone="no"?>
<!DOCTYPE svg PUBLIC "-//W3C//DTD SVG 20010904//EN"
 "http://www.w3.org/TR/2001/REC-SVG-20010904/DTD/svg10.dtd">
<svg version="1.0" xmlns="http://www.w3.org/2000/svg"
 width="500.000000pt" height="400.000000pt" viewBox="0 80 600 400"
 preserveAspectRatio="xMidYMid meet">

<g transform="translate(0.000000,400.000000) scale(0.100000,-0.100000)"
fill="#000000" stroke="none">
<path d="M2167 2131 c-34 -75 -201 -232 -228 -215 -12 7 13 53 77 146 30 43
54 82 54 88 0 18 -30 11 -64 -15 -18 -14 -40 -25 -49 -25 -21 0 -32 -19 -18
-33 9 -9 16 -8 31 1 33 21 31 14 -15 -49 -25 -34 -48 -72 -51 -84 -18 -74 27
-83 114 -25 90 60 214 212 197 240 -12 20 -30 9 -48 -29z"/>
<path d="M2624 2113 c-20 -31 -38 -62 -41 -70 -3 -7 -19 -13 -35 -13 -44 0
-118 -75 -118 -119 0 -40 26 -42 69 -5 l31 26 0 -26 c0 -23 4 -26 38 -25 33 0
42 7 86 60 27 32 51 58 53 56 2 -2 -6 -25 -18 -52 -18 -41 -19 -49 -7 -62 11
-10 21 -11 40 -4 14 5 36 7 48 4 13 -4 32 2 51 16 29 21 29 21 29 1 0 -16 7
-20 33 -20 27 0 41 10 85 60 58 65 83 79 52 28 -11 -18 -20 -45 -20 -60 0 -24
4 -28 28 -28 30 0 62 26 62 50 0 9 -8 6 -23 -8 -22 -21 -47 -29 -47 -15 0 3
14 31 31 61 35 62 28 87 -15 58 -32 -20 -37 -20 -29 0 14 38 -24 4 -62 -54
-60 -93 -92 -95 -50 -4 13 29 23 52 22 53 -1 0 -17 2 -35 5 -46 6 -87 -21
-123 -78 -49 -81 -68 -55 -24 32 15 30 21 51 15 55 -12 7 -76 -30 -84 -48 -2
-7 -5 -8 -5 -1 -1 6 22 48 49 94 28 46 48 85 45 88 -13 13 -36 -17 -93 -121
-60 -111 -95 -157 -108 -144 -11 11 54 141 120 240 16 24 16 27 2 27 -8 0 -32
-26 -52 -57z m-82 -130 c-28 -39 -71 -78 -78 -71 -10 11 21 59 52 78 40 27 49
25 26 -7z m329 10 c-15 -29 -80 -87 -88 -80 -11 12 19 56 51 77 38 24 50 25
37 3z"/>
<path d="M2316 1970 c-44 -68 -66 -86 -66 -55 0 9 9 33 20 55 11 22 20 43 20
49 0 16 -80 5 -108 -16 -83 -62 -72 -163 12 -108 21 14 24 14 29 0 4 -9 19
-15 36 -15 22 0 43 14 91 63 34 34 60 54 57 45 -9 -27 10 -31 27 -6 20 28 21
58 2 58 -7 0 -25 -9 -39 -20 -25 -20 -25 -20 -20 0 11 41 -17 18 -61 -50z
m-85 1 c-32 -45 -81 -76 -81 -52 0 16 52 72 74 81 30 11 31 5 7 -29z"/>
</g>
</svg>
